<?xml version="1.0" encoding="utf-8"?>
<!-- Generator: Adobe Illustrator 27.5.0, SVG Export Plug-In . SVG Version: 6.00 Build 0)  -->
<svg version="1.1" id="Camada_1" xmlns="http://www.w3.org/2000/svg" xmlns:xlink="http://www.w3.org/1999/xlink" x="0px" y="0px"
	 viewBox="0 0 200 179.45" style="enable-background:new 0 0 200 179.45;" xml:space="preserve">
<style type="text/css">
	.st0{fill:#FFFFFF;}
	.st1{fill:#081A28;}
	.st2{fill:#07DA83;}
</style>
<g>
	<path class="st0" d="M47.05,130.53V55.78c0,0,21.91-12.04,52.68-12.04c27.76,0,53.18,12.21,53.18,12.21v74.58c0,0,0,3.85-5.52,8.53
		c-5.44,4.61-43.48,35.95-43.48,35.95l0,0c-1.64,1.19-3.93,0.01-3.93-2.01v-19.87c0-2.15-1.7-3.9-3.85-3.97
		C84.37,148.79,49.55,146.36,47.05,130.53z"/>
	<path class="st1" d="M60.42,128.36l0.5-63.55c0,0,13.71-8.03,38.8-8.03s39.47,8.03,39.47,8.03v63.55c0,0-11.04,7.23-39.47,7.23
		S60.42,128.36,60.42,128.36z"/>
	<path class="st0" d="M43.83,81.87h0.04v39.97l0,0c-6.46,0-11.71-5.24-11.71-11.71v-16.6C32.16,87.09,37.39,81.87,43.83,81.87z"/>
	<path class="st0" d="M156.45,81.87h-0.04v39.97l0,0c6.46,0,11.71-5.24,11.71-11.71v-16.6C168.12,87.09,162.9,81.87,156.45,81.87z"
		/>
	<ellipse class="st2" cx="118.54" cy="102.02" rx="7.44" ry="11.62"/>
	<ellipse class="st2" cx="81.58" cy="102.02" rx="7.44" ry="11.62"/>
	<path class="st2" d="M47.05,83.65V55.78c0,0,22.91-12.01,52.93-12.01s52.93,12.18,52.93,12.18v27.7c0,0-23.24-12.98-53.68-12.98
		C68.28,70.66,47.05,83.65,47.05,83.65z"/>
	<path class="st2" d="M34.67,86.67v-6.05c0-0.82-0.4-1.54-1.02-1.98c2.66-0.73,4.53-2.42,4.53-4.39c0-2.28-2.51-4.19-5.85-4.65
		V55.78h-3.18V69.6c-3.35,0.47-5.85,2.37-5.85,4.65c0,1.88,1.7,3.51,4.17,4.28c-0.5,0.35-0.83,0.93-0.83,1.59v6.97
		c0,1.46,0.82,2.73,2.03,3.36l0,0l-6.21,43.41l9.03,3.18l2.84-3.01h3.68L32.4,90.4C33.75,89.71,34.67,88.3,34.67,86.67z"/>
	<path class="st2" d="M43.2,62.14v-8.08c0,0,23.08-15.11,56.77-15.11c30.35,0,56.61,15,56.61,15v8.19l39.9-16.61
		c1.14-0.48,1.14-2.09,0-2.57l-90.7-37.83c-3.71-1.55-7.89-1.55-11.61-0.02L3.52,42.6c-1.46,0.6-1.45,2.67,0.01,3.27l24.91,10.21
		l1.68,0.69l1.82,0.75l1.67,0.68L43.2,62.14z"/>
</g>
</svg>
